<?xml version="1.0" encoding="UTF-8"?>
<svg xmlns="http://www.w3.org/2000/svg" width="960" height="420" viewBox="0 0 960 420">
  <defs>
    <linearGradient id="bgGradient" x1="0%" y1="0%" x2="0%" y2="100%">
      <stop offset="0%" stop-color="#0b1224"/>
      <stop offset="100%" stop-color="#101a36"/>
    </linearGradient>
    <linearGradient id="nodeGradient" x1="0%" y1="0%" x2="100%" y2="0%">
      <stop offset="0%" stop-color="#38bdf8"/>
      <stop offset="100%" stop-color="#60a5fa"/>
    </linearGradient>
    <linearGradient id="feedbackGradient" x1="0%" y1="0%" x2="100%" y2="0%">
      <stop offset="0%" stop-color="#f97316"/>
      <stop offset="100%" stop-color="#facc15"/>
    </linearGradient>
    <filter id="nodeShadow" x="-0.15" y="-0.15" width="1.3" height="1.4" color-interpolation-filters="sRGB">
      <feDropShadow dx="0" dy="6" stdDeviation="10" flood-color="#0f172a" flood-opacity="0.35"/>
    </filter>
    <marker id="arrow" markerWidth="14" markerHeight="14" refX="13" refY="7" orient="auto">
      <path d="M2,2 L13,7 L2,12 Q0,7 2,2" fill="#38bdf8" opacity="0.85"/>
    </marker>
    <marker id="arrowWarm" markerWidth="14" markerHeight="14" refX="13" refY="7" orient="auto">
      <path d="M2,2 L13,7 L2,12 Q0,7 2,2" fill="#fb923c" opacity="0.85"/>
    </marker>
  </defs>

  <rect width="960" height="420" rx="28" fill="url(#bgGradient)"/>

  <g font-family="Inter, 'Segoe UI', -apple-system, BlinkMacSystemFont, sans-serif" fill="#e2e8f0">
    <text x="480" y="62" font-size="28" font-weight="600" text-anchor="middle">Cambridge Analytica · Data→Profilo→Targeting</text>
    <text x="480" y="90" font-size="15" text-anchor="middle" fill="#94a3b8">
      Dal quiz Facebook ai dark post: pipeline integrata per micro-targeting psicografico
    </text>

    <g font-size="13" fill="#cbd5f5" text-anchor="middle">
      <g transform="translate(60 120)" filter="url(#nodeShadow)">
        <rect width="180" height="96" rx="18" fill="#1e293b" stroke="url(#nodeGradient)" stroke-width="2"/>
        <text x="90" y="26" font-size="18" font-weight="600" fill="#f8fafc">1 · Harvest</text>
        <text x="90" y="48">Facebook Graph API</text>
        <text x="90" y="66">Quiz thisisyourdigitallife</text>
        <text x="90" y="84">Like, amici, messaggi</text>
      </g>

      <g transform="translate(280 120)" filter="url(#nodeShadow)">
        <rect width="180" height="96" rx="18" fill="#1e293b" stroke="url(#nodeGradient)" stroke-width="2"/>
        <text x="90" y="26" font-size="18" font-weight="600" fill="#f8fafc">2 · Data Append</text>
        <text x="90" y="48">Registri elettorali</text>
        <text x="90" y="66">Broker consumo / acquisti</text>
        <text x="90" y="84">Demografia, contatti</text>
      </g>

      <g transform="translate(500 120)" filter="url(#nodeShadow)">
        <rect width="180" height="96" rx="18" fill="#1f2a48" stroke="url(#nodeGradient)" stroke-width="2"/>
        <text x="90" y="26" font-size="18" font-weight="600" fill="#f8fafc">3 · Scoring OCEAN</text>
        <text x="90" y="48">Modelli psicometrici</text>
        <text x="90" y="66">Feature social + quiz</text>
        <text x="90" y="84">Profili tratti Big Five</text>
      </g>

      <g transform="translate(720 120)" filter="url(#nodeShadow)">
        <rect width="180" height="96" rx="18" fill="#1f2a48" stroke="url(#nodeGradient)" stroke-width="2"/>
        <text x="90" y="26" font-size="18" font-weight="600" fill="#f8fafc">4 · Voter Profile</text>
        <text x="90" y="48">Scheda psicografica</text>
        <text x="90" y="66">Età · genere · posizione</text>
        <text x="90" y="84">Stato consenso / issue</text>
      </g>

      <g transform="translate(60 260)" filter="url(#nodeShadow)">
        <rect width="180" height="96" rx="18" fill="#1f2a48" stroke="url(#nodeGradient)" stroke-width="2"/>
        <text x="90" y="26" font-size="18" font-weight="600" fill="#f8fafc">5 · Segmentazione</text>
        <text x="90" y="48">Cluster “persuadibili”</text>
        <text x="90" y="66">Score issue-level</text>
        <text x="90" y="84">Propensioni / turnout</text>
      </g>

      <g transform="translate(280 260)" filter="url(#nodeShadow)">
        <rect width="180" height="96" rx="18" fill="#1f2a48" stroke="url(#nodeGradient)" stroke-width="2"/>
        <text x="90" y="26" font-size="18" font-weight="600" fill="#f8fafc">6 · Creative Lab</text>
        <text x="90" y="48">Varianti meme · video</text>
        <text x="90" y="66">Narrative per tratto</text>
        <text x="90" y="84">Setup A/B testing</text>
      </g>

      <g transform="translate(500 260)" filter="url(#nodeShadow)">
        <rect width="180" height="96" rx="18" fill="#1e293b" stroke="url(#nodeGradient)" stroke-width="2"/>
        <text x="90" y="26" font-size="18" font-weight="600" fill="#f8fafc">7 · Delivery</text>
        <text x="90" y="48">Facebook Custom Audience</text>
        <text x="90" y="66">Dark post · email · SMS</text>
        <text x="90" y="84">Canvassing mirato</text>
      </g>

      <g transform="translate(720 260)" filter="url(#nodeShadow)">
        <rect width="180" height="96" rx="18" fill="#1f2937" stroke="url(#feedbackGradient)" stroke-width="2.2"/>
        <text x="90" y="26" font-size="18" font-weight="600" fill="#fde68a">8 · Feedback Loop</text>
        <text x="90" y="48" fill="#fcd34d">Click · condivisioni · conversioni</text>
        <text x="90" y="66" fill="#fcd34d">Sondaggi interni · field data</text>
        <text x="90" y="84" fill="#fcd34d">Refit modelli / creatività</text>
      </g>
    </g>
  </g>

  <g fill="none" stroke-width="2.5" opacity="0.9">
    <path d="M240 168 H280" stroke="#38bdf8" marker-end="url(#arrow)"/>
    <path d="M460 168 H500" stroke="#38bdf8" marker-end="url(#arrow)"/>
    <path d="M680 168 H720" stroke="#38bdf8" marker-end="url(#arrow)"/>
    <path d="M810 216 V260" stroke="#38bdf8" marker-end="url(#arrow)"/>
    <path d="M150 216 V260" stroke="#38bdf8" marker-end="url(#arrow)"/>
    <path d="M240 308 H280" stroke="#38bdf8" marker-end="url(#arrow)"/>
    <path d="M460 308 H500" stroke="#38bdf8" marker-end="url(#arrow)"/>
    <path d="M680 308 H720" stroke="#fb923c" marker-end="url(#arrowWarm)"/>
    <path d="M810 308 C 900 260 820 200 600 200 C 360 200 220 220 150 260" stroke="#fb923c" stroke-dasharray="6 4" opacity="0.75" marker-end="url(#arrowWarm)"/>
  </g>

  <g font-family="Inter, 'Segoe UI', -apple-system, BlinkMacSystemFont, sans-serif" font-size="12" fill="#94a3b8">
    <text x="740" y="360">Loop warm tone = ottimizzazione continua basata sulle performance di campagna</text>
  </g>
</svg>
