<?xml version="1.0" encoding="UTF-8"?>
<svg xmlns="http://www.w3.org/2000/svg" width="720" height="420" viewBox="0 0 720 420">
  <defs>
    <linearGradient id="bgGradient" x1="0%" y1="0%" x2="0%" y2="100%">
      <stop offset="0%" stop-color="#0b1224"/>
      <stop offset="100%" stop-color="#111c33"/>
    </linearGradient>
    <linearGradient id="accentGradient" x1="0%" y1="0%" x2="100%" y2="0%">
      <stop offset="0%" stop-color="#38bdf8"/>
      <stop offset="100%" stop-color="#60a5fa"/>
    </linearGradient>
    <filter id="shadow" x="-0.05" y="-0.1" width="1.1" height="1.25" color-interpolation-filters="sRGB">
      <feDropShadow dx="0" dy="10" stdDeviation="16" flood-color="#0f172a" flood-opacity="0.55"/>
    </filter>
  </defs>
  <rect width="720" height="420" rx="28" fill="url(#bgGradient)"/>
  <g font-family="Inter, 'Segoe UI', sans-serif" fill="#e2e8f0">
    <text x="360" y="46" font-size="26" text-anchor="middle" font-weight="600">Architettura a Container</text>
    <g transform="translate(70 80)">
      <g transform="translate(0 0)" filter="url(#shadow)">
        <rect width="170" height="180" rx="18" fill="#14213d" stroke="url(#accentGradient)" stroke-width="2"/>
        <rect x="20" y="24" width="130" height="52" rx="12" fill="#1d4ed8"/>
        <text x="85" y="58" font-size="15" text-anchor="middle" font-weight="600">Applicazione A</text>
        <rect x="20" y="92" width="130" height="52" rx="12" fill="#1e293b"/>
        <text x="85" y="126" font-size="15" text-anchor="middle">Dipendenze</text>
        <text x="85" y="170" font-size="13" text-anchor="middle" fill="#cbd5f5">Container 1</text>
      </g>
      <g transform="translate(205 0)" filter="url(#shadow)">
        <rect width="170" height="180" rx="18" fill="#14213d" stroke="url(#accentGradient)" stroke-width="2"/>
        <rect x="20" y="24" width="130" height="52" rx="12" fill="#1d4ed8"/>
        <text x="85" y="58" font-size="15" text-anchor="middle" font-weight="600">Applicazione B</text>
        <rect x="20" y="92" width="130" height="52" rx="12" fill="#1e293b"/>
        <text x="85" y="126" font-size="15" text-anchor="middle">Dipendenze</text>
        <text x="85" y="170" font-size="13" text-anchor="middle" fill="#cbd5f5">Container 2</text>
      </g>
      <g transform="translate(410 0)" filter="url(#shadow)">
        <rect width="170" height="180" rx="18" fill="#14213d" stroke="url(#accentGradient)" stroke-width="2"/>
        <rect x="20" y="24" width="130" height="52" rx="12" fill="#1d4ed8"/>
        <text x="85" y="58" font-size="15" text-anchor="middle" font-weight="600">Applicazione C</text>
        <rect x="20" y="92" width="130" height="52" rx="12" fill="#1e293b"/>
        <text x="85" y="126" font-size="15" text-anchor="middle">Dipendenze</text>
        <text x="85" y="170" font-size="13" text-anchor="middle" fill="#cbd5f5">Container 3</text>
      </g>
    </g>
    <g transform="translate(48 274)">
      <rect width="624" height="58" rx="14" fill="#1b2548" stroke="#334970" stroke-width="1.5"/>
      <text x="312" y="36" text-anchor="middle" font-size="18" font-weight="500">Docker Engine &amp; Runtime</text>
    </g>
    <g transform="translate(32 334)">
      <rect width="656" height="48" rx="12" fill="#111c33" stroke="#334970" stroke-width="1.3"/>
      <text x="328" y="31" text-anchor="middle" font-size="17">Host Operating System Kernel</text>
    </g>
    <g transform="translate(16 386)">
      <rect width="688" height="30" rx="10" fill="#0f172a" stroke="#334970" stroke-width="1.1"/>
      <text x="344" y="20" text-anchor="middle" font-size="16">Infrastruttura Fisica / Cloud</text>
    </g>
  </g>
</svg>
