<svg xmlns="http://www.w3.org/2000/svg" width="1200" height="2220" viewBox="0 0 1200 2220">
<defs>
<style>
.bg{fill:#fbfdff}
.title{font-family:Poppins,Arial,sans-serif;font-weight:800;font-size:58px;letter-spacing:-1.6px;fill:#071044}
.subtitle{font-family:Poppins,Arial,sans-serif;font-size:22px;fill:#263047}
.flow{font-family:Poppins,Arial,sans-serif;font-size:11px;font-weight:700;fill:#0b1648}
.h2{font-family:Poppins,Arial,sans-serif;font-weight:800;font-size:23px;fill:#08135a}
.h3{font-family:Poppins,Arial,sans-serif;font-weight:800;font-size:14px;fill:#0e38b6}
.body{font-family:Poppins,Arial,sans-serif;font-size:11.9px;fill:#202438}
.sidebody{font-family:Poppins,Arial,sans-serif;font-size:10.9px;fill:#252d43}
.label{font-family:Poppins,Arial,sans-serif;font-size:15px;fill:#202943}
.num{font-family:Poppins,Arial,sans-serif;font-weight:800;font-size:16px;fill:#fff}
.capT{font-family:Poppins,Arial,sans-serif;font-weight:800;font-size:15px;fill:#1137be}
.capB{font-family:Poppins,Arial,sans-serif;font-size:12px;fill:#273047}
.ref{font-family:Poppins,Arial,sans-serif;font-size:10px;fill:#2a3451}
.card{fill:#fff;stroke:#dce8f3;stroke-width:1.2}
.main{fill:#fff;stroke:#e0ebf5;stroke-width:1.2}
.iconbox{fill:#fbfdff;stroke:#d8e7f3;stroke-width:1.2}
.line{stroke:#dce8f3;stroke-width:1}
.accent{stroke:#17a3c9;stroke-width:2;fill:none;stroke-linecap:round;stroke-linejoin:round}
.blue{stroke:#1236c7;stroke-width:2;fill:none;stroke-linecap:round;stroke-linejoin:round}
.dot{fill:#17a3c9}
</style>
<filter id="shadow" x="-8%" y="-8%" width="116%" height="116%">
<feDropShadow dx="0" dy="3" stdDeviation="5" flood-color="#0b2850" flood-opacity=".055"/>
</filter>
<symbol id="doc" viewBox="0 0 36 36"><path d="M10 5h12l5 5v21H10z" class="accent"/><path d="M22 5v6h6M14 15h9M14 20h9M14 25h6" class="accent"/></symbol>
<symbol id="dots" viewBox="0 0 36 36"><circle cx="10" cy="10" r="2.1" class="dot"/><circle cx="18" cy="7" r="2.1" class="dot"/><circle cx="26" cy="10" r="2.1" class="dot"/><circle cx="12" cy="18" r="2.1" class="dot"/><circle cx="22" cy="18" r="2.1" class="dot"/><circle cx="10" cy="26" r="2.1" class="dot"/><circle cx="18" cy="29" r="2.1" class="dot"/><circle cx="26" cy="26" r="2.1" class="dot"/></symbol>
<symbol id="brain" viewBox="0 0 36 36"><path d="M14 26c-4 0-7-3-7-7 0-3 2-5 4-6 0-4 3-7 7-7 3 0 5 2 6 4 3 0 6 3 6 7s-3 7-7 7" class="accent"/><path d="M18 8v19M12 15h6M18 13h7M18 21h8" class="accent"/></symbol>
<symbol id="grid" viewBox="0 0 36 36"><circle cx="9" cy="9" r="2" class="dot"/><circle cx="18" cy="9" r="2" class="dot"/><circle cx="27" cy="9" r="2" class="dot"/><circle cx="9" cy="18" r="2" class="dot"/><circle cx="18" cy="18" r="2" class="dot"/><circle cx="27" cy="18" r="2" class="dot"/><circle cx="9" cy="27" r="2" class="dot"/><circle cx="18" cy="27" r="2" class="dot"/><circle cx="27" cy="27" r="2" class="dot"/></symbol>
<symbol id="db" viewBox="0 0 36 36"><ellipse cx="18" cy="9" rx="10" ry="4" class="accent"/><path d="M8 9v15c0 2 4.5 4 10 4s10-2 10-4V9M8 16c0 2 4.5 4 10 4s10-2 10-4" class="accent"/></symbol>
<symbol id="chat" viewBox="0 0 36 36"><path d="M10 10h15a6 6 0 0 1 0 12h-8l-7 5v-5a6 6 0 0 1 0-12z" class="accent"/></symbol>
<symbol id="target" viewBox="0 0 36 36"><circle cx="18" cy="18" r="12" class="accent"/><circle cx="18" cy="18" r="6" class="accent"/><circle cx="18" cy="18" r="2" class="dot"/><path d="M25 11l6-5-2 7-7 7" class="accent"/></symbol>
<symbol id="chart" viewBox="0 0 36 36"><path d="M7 28h22M10 25l6-7 5 3 7-11M27 10h-6M27 10v6" class="blue"/></symbol>
<symbol id="eye" viewBox="0 0 36 36"><path d="M5 18s5-8 13-8 13 8 13 8-5 8-13 8S5 18 5 18z" class="blue"/><circle cx="18" cy="18" r="4" class="blue"/></symbol>
<symbol id="bolt" viewBox="0 0 36 36"><path d="M21 4L8 20h10l-3 12 13-17H18z" class="blue"/></symbol>
<symbol id="trophy" viewBox="0 0 36 36"><path d="M12 8h12v7c0 5-3 9-6 9s-6-4-6-9z" class="blue"/><path d="M12 11H7c0 5 2 8 6 8M24 11h5c0 5-2 8-6 8M18 24v5M13 30h10" class="blue"/></symbol>
<symbol id="code" viewBox="0 0 36 36"><path d="M13 11l-7 7 7 7M23 11l7 7-7 7M20 8l-4 20" class="blue"/></symbol>
<symbol id="shield" viewBox="0 0 36 36"><path d="M18 5l11 4v8c0 7-5 12-11 14C12 29 7 24 7 17V9zM13 18l4 4 7-9" class="accent"/></symbol>
</defs>
<rect width="100%" height="100%" class="bg"/>
<text x="32" y="76" class="title" >Dagli n-grammi agli LLM</text>
<text x="32" y="116" class="subtitle" >Timeline dell’evoluzione dei modelli per NLP: dai metodi statistici ai modelli generativi,</text>
<text x="32" y="146" class="subtitle" >multimodali e specializzati.</text>
<rect x="30" y="165" width="1140" height="76" rx="12" class="card" filter="url(#shadow)"/>
<use href="#doc" x="52" y="187" width="30" height="30"/>
<text x="92" y="198" class="flow" >Feature</text>
<text x="92" y="213" class="flow" >manuali</text>
<text x="188" y="205" class="flow" fill="#17a3c9">&gt;</text>
<use href="#dots" x="205" y="187" width="30" height="30"/>
<text x="245" y="198" class="flow" >Rappresentazioni</text>
<text x="245" y="213" class="flow" >distribuite</text>
<text x="341" y="205" class="flow" fill="#17a3c9">&gt;</text>
<use href="#brain" x="358" y="187" width="30" height="30"/>
<text x="398" y="198" class="flow" >Memoria</text>
<text x="398" y="213" class="flow" >sequenziale</text>
<text x="494" y="205" class="flow" fill="#17a3c9">&gt;</text>
<use href="#grid" x="510" y="187" width="30" height="30"/>
<text x="550" y="198" class="flow" >Self-attention</text>
<text x="646" y="205" class="flow" fill="#17a3c9">&gt;</text>
<use href="#db" x="660" y="187" width="30" height="30"/>
<text x="700" y="198" class="flow" >Pre-training</text>
<text x="700" y="213" class="flow" >su scala</text>
<text x="796" y="205" class="flow" fill="#17a3c9">&gt;</text>
<use href="#chat" x="810" y="187" width="30" height="30"/>
<text x="850" y="198" class="flow" >Prompting e</text>
<text x="850" y="213" class="flow" >allineamento</text>
<text x="946" y="205" class="flow" fill="#17a3c9">&gt;</text>
<use href="#target" x="965" y="187" width="30" height="30"/>
<text x="1005" y="198" class="flow" >Efficienza e</text>
<text x="1005" y="213" class="flow" >specializzazione</text>
<rect x="30" y="260" width="875" height="1550" rx="16" class="main" filter="url(#shadow)"/>
<line x1="196" y1="285" x2="196" y2="1785" class="line"/>
<line x1="62" y1="300" x2="62" y2="1775" stroke="#17a3c9" stroke-width="1.4"/>
<circle cx="62" cy="296" r="15" fill="#17a3c9"/>
<text x="57" y="302" class="num" >1</text>
<text x="97" y="293" class="label" >Anni ’90 –</text>
<text x="97" y="315" class="label" >primi ’00</text>
<rect x="215" y="285" width="52" height="52" rx="9" class="iconbox" />
<use href="#chart" x="225" y="295" width="32" height="32"/>
<text x="285" y="307" class="h2" >Era statistica</text>
<text x="285" y="337" class="body" >&gt; n-grammi per language modeling; HMM per tag sequenziali.</text>
<text x="285" y="354" class="body" >&gt; Bag-of-words + TF-IDF per IR e classificazione.</text>
<text x="285" y="371" class="body" >&gt; Limiti: nessuna comprensione del significato, contesto limitato a poche parole,</text>
<text x="300" y="388" class="body" >richiedono molte osservazioni per coprire casi rari.</text>
<text x="285" y="405" class="body" >&gt; L’ingegnere progetta feature: liste di keyword, pattern regex, ecc.</text>
<text x="285" y="422" class="body" >&gt; Oggi: obsolete se non per baseline veloci.</text>
<line x1="210" y1="441" x2="890" y2="441" class="line"/>
<circle cx="62" cy="473" r="15" fill="#17a3c9"/>
<text x="57" y="479" class="num" >2</text>
<text x="97" y="470" class="label" >Anni ’00 –</text>
<text x="97" y="492" class="label" >primi ’10</text>
<rect x="215" y="462" width="52" height="52" rx="9" class="iconbox" />
<use href="#dots" x="225" y="472" width="32" height="32"/>
<text x="285" y="484" class="h2" >Prime reti neurali per NLP</text>
<text x="285" y="514" class="body" >&gt; Feed-forward neural network per language model, Bengio et al. 2003.</text>
<text x="285" y="531" class="body" >&gt; Word embeddings densi che catturano similarità semantica, Mikolov et al. 2013: es.</text>
<text x="300" y="548" class="body" >king - man + woman ≈ queen.</text>
<text x="285" y="565" class="body" >&gt; Embedding statici e contesto a finestra limitata, es. 5 parole.</text>
<text x="285" y="582" class="body" >&gt; Paradigma primitivo: pre-addestrare embedding generali, poi riusarli in modelli</text>
<text x="300" y="599" class="body" >specifici.</text>
<line x1="210" y1="616" x2="890" y2="616" class="line"/>
<circle cx="62" cy="646" r="15" fill="#17a3c9"/>
<text x="57" y="652" class="num" >3</text>
<text x="97" y="643" class="label" >2014 – 2016</text>
<rect x="215" y="635" width="52" height="52" rx="9" class="iconbox" />
<use href="#brain" x="225" y="645" width="32" height="32"/>
<text x="285" y="657" class="h2" >Sequence modeling con RNN, LSTM e GRU</text>
<text x="285" y="687" class="body" >&gt; Seq2Seq con attenzione, Bahdanau et al. 2014: encoder LSTM, decoder LSTM,</text>
<text x="300" y="704" class="body" >attention.</text>
<text x="285" y="721" class="body" >&gt; LSTM domina sintesi vocale, image captioning, text generation.</text>
<text x="285" y="738" class="body" >&gt; Risolti: memoria a breve termine, ordine di parola, lunghezze variabili.</text>
<text x="285" y="755" class="body" >&gt; Restano difficili dipendenze lunghe, training lento e non parallelo.</text>
<text x="285" y="772" class="body" >&gt; Clipping, inizializzazioni ortogonali e altri trick per stabilizzare; GPU standard</text>
<text x="300" y="789" class="body" >in NLP.</text>
<line x1="210" y1="805" x2="890" y2="805" class="line"/>
<circle cx="62" cy="836" r="15" fill="#17a3c9"/>
<text x="57" y="842" class="num" >4</text>
<text x="97" y="833" class="label" >2017</text>
<rect x="215" y="825" width="52" height="52" rx="9" class="iconbox" />
<use href="#grid" x="225" y="835" width="32" height="32"/>
<text x="285" y="847" class="h2" >Il Transformer</text>
<text x="285" y="877" class="body" >&gt; Introduce self-attention multipla e abbandona ricorsione e convoluzioni.</text>
<text x="285" y="894" class="body" >&gt; Training più veloce, migliore parallelizzazione, contesto globale.</text>
<text x="285" y="911" class="body" >&gt; Sostituisce rapidamente LSTM in traduzione e nei task sequenziali.</text>
<text x="285" y="928" class="body" >&gt; Tensor2Tensor e poi Hugging Face accelerano la diffusione.</text>
<text x="285" y="945" class="body" >&gt; Nascono Transformer encoder-only, BERT, e decoder-only, GPT.</text>
<line x1="210" y1="975" x2="890" y2="975" class="line"/>
<circle cx="62" cy="1006" r="15" fill="#17a3c9"/>
<text x="57" y="1012" class="num" >5</text>
<text x="97" y="1003" class="label" >2018 – 2019</text>
<rect x="215" y="995" width="52" height="52" rx="9" class="iconbox" />
<use href="#db" x="225" y="1005" width="32" height="32"/>
<text x="285" y="1017" class="h2" >Pre-training su larga scala</text>
<text x="285" y="1047" class="body" >&gt; BERT 2018: SOTA su 11 task NLP con fine-tuning minimo.</text>
<text x="285" y="1064" class="body" >&gt; GPT-2 2019: generazione fluida; inizialmente rilasciato parzialmente.</text>
<text x="285" y="1081" class="body" >&gt; ULMFiT mostra il potere del fine-tuning universale.</text>
<text x="285" y="1098" class="body" >&gt; BERT-base, 110M, e GPT-2, 1.5B, sembrano enormi: era solo l’inizio.</text>
<line x1="210" y1="1132" x2="890" y2="1132" class="line"/>
<circle cx="62" cy="1163" r="15" fill="#17a3c9"/>
<text x="57" y="1169" class="num" >6</text>
<text x="97" y="1160" class="label" >2020 – 2021</text>
<rect x="215" y="1152" width="52" height="52" rx="9" class="iconbox" />
<use href="#chart" x="225" y="1162" width="32" height="32"/>
<text x="285" y="1174" class="h2" >Emergenza dei Large Language Models</text>
<text x="285" y="1204" class="body" >&gt; GPT-3, 175B: capacità zero-shot e few-shot impressionanti.</text>
<text x="285" y="1221" class="body" >&gt; Prompting: compiti descritti nella prompt senza aggiornare i pesi.</text>
<text x="285" y="1238" class="body" >&gt; PaLM 540B, Megatron-Turing 530B, Gopher 280B.</text>
<text x="285" y="1255" class="body" >&gt; Architetture sparse: Switch Transformers, Mixture-of-Experts.</text>
<text x="285" y="1272" class="body" >&gt; Emergent abilities: ragionamento, aritmetica, programmazione, comprensione più</text>
<text x="300" y="1289" class="body" >profonda.</text>
<text x="285" y="1306" class="body" >&gt; Più dati, più parametri: migliori performance, con costi enormi.</text>
<line x1="210" y1="1328" x2="890" y2="1328" class="line"/>
<circle cx="62" cy="1361" r="15" fill="#17a3c9"/>
<text x="57" y="1367" class="num" >7</text>
<text x="97" y="1358" class="label" >2022 – 2023</text>
<rect x="215" y="1350" width="52" height="52" rx="9" class="iconbox" />
<use href="#chat" x="225" y="1360" width="32" height="32"/>
<text x="285" y="1372" class="h2" >Allineamento, utilità e democratizzazione</text>
<text x="285" y="1402" class="body" >&gt; InstructGPT e ChatGPT: RLHF per allineare le risposte agli intenti umani.</text>
<text x="285" y="1419" class="body" >&gt; Chinchilla, 70B, batte Gopher, 280B, usando 4x più dati.</text>
<text x="285" y="1436" class="body" >&gt; UL2 esplora obiettivi alternativi; T5 resta riferimento text-to-text.</text>
<text x="285" y="1453" class="body" >&gt; GPT-4 2023: multimodale, testo + immagini, ragionamento avanzato.</text>
<text x="285" y="1470" class="body" >&gt; Open source: BLOOM 176B, OPT 175B, LLaMA 2023 e varianti.</text>
<text x="285" y="1487" class="body" >&gt; Boom di RAG, tool use, plugin, LangChain, prodotti reali.</text>
<text x="285" y="1504" class="body" >&gt; GPT-4V, Gemini, PaLM-E e agenti con percezione e azione.</text>
<line x1="210" y1="1595" x2="890" y2="1595" class="line"/>
<circle cx="62" cy="1626" r="15" fill="#17a3c9"/>
<text x="57" y="1632" class="num" >8</text>
<text x="97" y="1623" class="label" >2024+</text>
<rect x="215" y="1615" width="52" height="52" rx="9" class="iconbox" />
<use href="#target" x="225" y="1625" width="32" height="32"/>
<text x="285" y="1637" class="h2" >Verso Small &amp; Specialized Models</text>
<text x="285" y="1667" class="body" >&gt; Reazione ai costi: distillation, quantization, pruning, LoRA, QLoRA.</text>
<text x="285" y="1684" class="body" >&gt; Architetture ibride: MoE, RETRO, tool use, pipeline ibride.</text>
<text x="285" y="1701" class="body" >&gt; Small Language Models su domini specifici, es. MedLM.</text>
<text x="285" y="1718" class="body" >&gt; Focus su controllo, interpretabilità, citazioni fonti, constitutional AI,</text>
<text x="300" y="1735" class="body" >verificabilità, sicurezza e riduzione delle allucinazioni.</text>
<rect x="930" y="260" width="240" height="150" rx="14" class="card" filter="url(#shadow)"/>
<use href="#doc" x="948" y="280" width="31" height="31"/>
<text x="992" y="296" class="h3" >Baseline</text>
<text x="992" y="313" class="h3" >interpretabili</text>
<text x="992" y="340" class="sidebody" >I metodi statistici sono</text>
<text x="992" y="355" class="sidebody" >ancora utili per baseline</text>
<text x="992" y="370" class="sidebody" >rapide, analisi degli</text>
<text x="992" y="385" class="sidebody" >errori e dataset piccoli.</text>
<rect x="930" y="428" width="240" height="148" rx="14" class="card" filter="url(#shadow)"/>
<use href="#db" x="948" y="448" width="31" height="31"/>
<text x="992" y="464" class="h3" >Pre-training + riuso</text>
<text x="992" y="491" class="sidebody" >Il paradigma che ha</text>
<text x="992" y="506" class="sidebody" >cambiato le regole:</text>
<text x="992" y="521" class="sidebody" >imparare rappresentazioni</text>
<text x="992" y="536" class="sidebody" >generali e riusarle</text>
<text x="992" y="551" class="sidebody" >ovunque.</text>
<rect x="930" y="594" width="240" height="150" rx="14" class="card" filter="url(#shadow)"/>
<use href="#eye" x="948" y="614" width="31" height="31"/>
<text x="992" y="630" class="h3" >Attenzione: un’idea,</text>
<text x="992" y="647" class="h3" >non solo un layer</text>
<text x="992" y="674" class="sidebody" >Prima usata come meccanismo</text>
<text x="992" y="689" class="sidebody" >nei Seq2Seq, poi diventa</text>
<text x="992" y="704" class="sidebody" >l’architettura principale</text>
<text x="992" y="719" class="sidebody" >con Transformer.</text>
<rect x="930" y="762" width="240" height="135" rx="14" class="card" filter="url(#shadow)"/>
<use href="#bolt" x="948" y="782" width="31" height="31"/>
<text x="992" y="798" class="h3" >Transformer: il game</text>
<text x="992" y="815" class="h3" >changer</text>
<text x="992" y="842" class="sidebody" >Niente ricorrenza, contesto</text>
<text x="992" y="857" class="sidebody" >globale, parallelismo,</text>
<text x="992" y="872" class="sidebody" >scalabilità a dati enormi.</text>
<rect x="930" y="915" width="240" height="135" rx="14" class="card" filter="url(#shadow)"/>
<use href="#trophy" x="948" y="935" width="31" height="31"/>
<text x="992" y="951" class="h3" >BERT = “ImageNet</text>
<text x="992" y="968" class="h3" >moment” per NLP</text>
<text x="992" y="995" class="sidebody" >Dimostra il potere dei</text>
<text x="992" y="1010" class="sidebody" >modelli pre-addestrati su</text>
<text x="992" y="1025" class="sidebody" >larga scala.</text>
<rect x="930" y="1068" width="240" height="150" rx="14" class="card" filter="url(#shadow)"/>
<use href="#chart" x="948" y="1088" width="31" height="31"/>
<text x="992" y="1104" class="h3" >Il messaggio</text>
<text x="992" y="1121" class="h3" >empirico</text>
<text x="992" y="1148" class="sidebody" >La scala, dati + parametri,</text>
<text x="992" y="1163" class="sidebody" >porta guadagni costanti in</text>
<text x="992" y="1178" class="sidebody" >molte dimensioni delle</text>
<text x="992" y="1193" class="sidebody" >capacità.</text>
<rect x="930" y="1236" width="240" height="148" rx="14" class="card" filter="url(#shadow)"/>
<use href="#shield" x="948" y="1256" width="31" height="31"/>
<text x="992" y="1272" class="h3" >RLHF</text>
<text x="992" y="1299" class="sidebody" >Allinea i modelli alle</text>
<text x="992" y="1314" class="sidebody" >preferenze umane per</text>
<text x="992" y="1329" class="sidebody" >renderli più utili, sicuri</text>
<text x="992" y="1344" class="sidebody" >e coerenti con le</text>
<text x="992" y="1359" class="sidebody" >istruzioni.</text>
<rect x="930" y="1402" width="240" height="150" rx="14" class="card" filter="url(#shadow)"/>
<use href="#doc" x="948" y="1422" width="31" height="31"/>
<text x="992" y="1438" class="h3" >Multimodalità e</text>
<text x="992" y="1455" class="h3" >agenti</text>
<text x="992" y="1482" class="sidebody" >I modelli vedono, ascoltano</text>
<text x="992" y="1497" class="sidebody" >e agiscono: integrazione</text>
<text x="992" y="1512" class="sidebody" >con strumenti e mondo</text>
<text x="992" y="1527" class="sidebody" >reale.</text>
<rect x="930" y="1570" width="240" height="133" rx="14" class="card" filter="url(#shadow)"/>
<use href="#code" x="948" y="1590" width="31" height="31"/>
<text x="992" y="1606" class="h3" >Direzione futura</text>
<text x="992" y="1633" class="sidebody" >Sistemi ibridi, strumenti,</text>
<text x="992" y="1648" class="sidebody" >memoria esterna e modelli</text>
<text x="992" y="1663" class="sidebody" >specializzati per casi</text>
<text x="992" y="1678" class="sidebody" >d’uso concreti.</text>
<rect x="30" y="1860" width="790" height="235" rx="16" class="card" filter="url(#shadow)"/>
<text x="52" y="1905" class="h2" style="font-size:34px">Cosa cambia davvero nel tempo</text>
<use href="#db" x="52" y="1943" width="34" height="34"/>
<text x="97" y="1958" class="capT" >Dati e scala</text>
<text x="97" y="1984" class="capB" >Da dataset piccoli</text>
<text x="97" y="2002" class="capB" >e feature manuali</text>
<text x="97" y="2020" class="capB" >a corpora enormi</text>
<text x="97" y="2038" class="capB" >e pre-training massivo.</text>
<line x1="226" y1="1940" x2="226" y2="2055" class="line"/>
<use href="#brain" x="250" y="1943" width="34" height="34"/>
<text x="295" y="1958" class="capT" >Rappresentazioni</text>
<text x="295" y="1984" class="capB" >Da simboliche e sparse</text>
<text x="295" y="2002" class="capB" >a dense, distribuite</text>
<text x="295" y="2020" class="capB" >e contestualizzate.</text>
<line x1="424" y1="1940" x2="424" y2="2055" class="line"/>
<use href="#bolt" x="455" y="1943" width="34" height="34"/>
<text x="500" y="1958" class="capT" >Architetture</text>
<text x="500" y="1984" class="capB" >Da modelli locali</text>
<text x="500" y="2002" class="capB" >e sequenziali</text>
<text x="500" y="2020" class="capB" >a globali, paralleli</text>
<text x="500" y="2038" class="capB" >e scalabili.</text>
<line x1="629" y1="1940" x2="629" y2="2055" class="line"/>
<use href="#doc" x="660" y="1943" width="34" height="34"/>
<text x="705" y="1958" class="capT" >Obiettivo</text>
<text x="705" y="1984" class="capB" >Da predire parole</text>
<text x="705" y="2002" class="capB" >a capire, ragionare,</text>
<text x="705" y="2020" class="capB" >interagire e agire.</text>
<rect x="842" y="1860" width="328" height="235" rx="16" class="card" filter="url(#shadow)" stroke="#17a3c9" stroke-dasharray="4 4"/>
<text x="865" y="1898" class="h3" style="font-size:17px">RLHF in breve</text>
<text x="865" y="1928" class="sidebody" style="font-size:12.3px">Reinforcement Learning from Human</text>
<text x="865" y="1945" class="sidebody" style="font-size:12.3px">Feedback: il modello genera risposte,</text>
<text x="865" y="1962" class="sidebody" style="font-size:12.3px">gli esseri umani esprimono preferenze,</text>
<text x="865" y="1979" class="sidebody" style="font-size:12.3px">un modello di reward impara da queste</text>
<text x="865" y="1996" class="sidebody" style="font-size:12.3px">preferenze e guida l’LLM a produrre</text>
<text x="865" y="2013" class="sidebody" style="font-size:12.3px">risposte migliori.</text>
<text x="32" y="2140" class="ref" style="font-weight:700">Riferimenti chiave:</text>
<text x="205" y="2140" class="ref" >[1] Bengio et al., 2003   [2] Mikolov et al., 2013   [3] Bahdanau et al., 2014   [4] Vaswani et al., 2017</text>
<text x="205" y="2160" class="ref" >[5] Devlin et al., 2018, BERT   [6] Radford et al., 2019, GPT-2   [7] Brown et al., 2020, GPT-3</text>
<text x="205" y="2180" class="ref" >[8] Hoffmann et al., 2022, Chinchilla   [9] Ouyang et al., 2022, InstructGPT   [10] OpenAI, 2023, GPT-4</text>
</svg>